<svg xmlns="http://www.w3.org/2000/svg" fill="none" viewBox="0 0 512 512">
    <g transform="translate(0.000000,512.000000) scale(0.100000,-0.100000)" fill="#FF0000" stroke="none">
    <path d="M2640 4539 c-172 -45 -391 -181 -497 -308 -68 -82 -144 -238 -172
        -352 -12 -47 -25 -136 -30 -197 -11 -159 -35 -177 -167 -132 -92 32 -288 68
        -409 75 -134 9 -300 -7 -432 -40 -121 -30 -284 -109 -343 -166 -52 -50 -105
        -162 -119 -250 -23 -137 -7 -322 35 -417 77 -174 264 -347 494 -456 83 -40
        118 -68 133 -107 3 -10 -11 -38 -39 -75 -122 -161 -195 -407 -194 -653 1 -184
        39 -341 111 -452 137 -214 437 -287 715 -175 117 48 207 109 319 217 105 102
        127 109 152 51 98 -226 149 -307 252 -404 90 -86 226 -154 396 -200 106 -28
        136 -32 255 -32 133 -1 136 0 202 32 130 64 214 186 243 357 13 80 13 99 -1
        190 -29 186 -100 378 -218 584 -31 53 -56 104 -56 113 0 24 216 18 290 -8 82
        -28 250 -27 347 4 104 32 215 110 272 190 25 36 69 92 96 125 88 104 93 114
        110 216 10 53 31 155 47 226 27 118 29 140 23 235 -8 124 -20 154 -90 225
        -114 117 -273 161 -620 171 -102 3 -191 11 -222 20 -59 16 -63 26 -43 107 17
        66 37 219 35 257 -21 310 -99 559 -243 771 -155 230 -383 323 -632 258z m15
        -1114 c152 -39 288 -144 344 -266 32 -68 58 -176 49 -200 -4 -11 -36 -13 -172
        -11 -148 3 -166 5 -166 20 0 29 -46 116 -76 144 -79 74 -244 86 -336 25 -76
        -52 -107 -156 -70 -239 33 -76 95 -112 320 -189 221 -76 343 -138 419 -215 76
        -76 110 -143 123 -248 27 -218 -70 -411 -257 -509 -117 -61 -169 -72 -343 -72
        -177 0 -226 9 -348 66 -66 30 -99 54 -156 111 -98 98 -132 170 -150 321 l-6
        47 169 0 169 0 11 -51 c30 -141 125 -219 277 -227 143 -8 255 46 285 136 17
        50 13 145 -7 184 -40 77 -104 114 -335 193 -297 102 -415 178 -481 313 -30 61
        -33 76 -36 177 -3 93 -1 120 18 174 59 175 218 296 435 331 79 12 245 4 320
        -15z"/>
    </g>
    <style>
        path { fill: #FF0000; }
        @media (prefers-color-scheme: dark) {
            path { fill: #FF0000; }
        }
    </style>
</svg>
